<svg width="182" height="15" viewBox="0 0 182 15" fill="none" xmlns="http://www.w3.org/2000/svg">
<path d="M3.5 7.45455C3.5 6.75568 3.67045 6.11861 4.01136 5.54332C4.35227 4.96804 4.81037 4.50994 5.38565 4.16903C5.96094 3.82812 6.59801 3.65767 7.29688 3.65767C7.90199 3.65767 8.46023 3.78764 8.97159 4.04759C9.48722 4.30753 9.91335 4.66335 10.25 5.11506C10.5866 5.5625 10.7955 6.0696 10.8764 6.63636H9.32955C9.24432 6.19744 9.00781 5.83949 8.62003 5.5625C8.23224 5.28125 7.79119 5.14062 7.29688 5.14062C6.87074 5.14062 6.48295 5.24503 6.13352 5.45384C5.78409 5.66264 5.50497 5.94176 5.29616 6.29119C5.08736 6.64062 4.98295 7.02841 4.98295 7.45455C4.98295 7.88068 5.08736 8.26847 5.29616 8.6179C5.50497 8.96733 5.78409 9.24645 6.13352 9.45526C6.48295 9.66406 6.87074 9.76847 7.29688 9.76847C7.79119 9.76847 8.20881 9.62997 8.54972 9.35298C8.89489 9.07173 9.11222 8.71165 9.2017 8.27273H10.7486C10.6676 8.83949 10.4695 9.34872 10.1541 9.80043C9.83878 10.2479 9.43395 10.6016 8.93963 10.8615C8.44957 11.1214 7.90199 11.2514 7.29688 11.2514C6.59801 11.2514 5.96094 11.081 5.38565 10.7401C4.81037 10.3991 4.35227 9.94105 4.01136 9.36577C3.67045 8.79048 3.5 8.15341 3.5 7.45455ZM7.23295 14.2045C6.30398 14.2045 5.4304 14.0298 4.61222 13.6804C3.7983 13.331 3.08026 12.8473 2.4581 12.2294C1.8402 11.6072 1.3544 10.8892 1.00071 10.0753C0.651278 9.26136 0.478693 8.38778 0.482955 7.45455C0.487216 6.52131 0.664062 5.64773 1.01349 4.83381C1.36719 4.01989 1.85298 3.30398 2.47088 2.68608C3.08878 2.06392 3.80469 1.57812 4.61861 1.22869C5.43253 0.879261 6.30398 0.704545 7.23295 0.704545C8.16619 0.704545 9.03977 0.879261 9.85369 1.22869C10.6719 1.57812 11.3878 2.06392 12.0014 2.68608C12.6193 3.30398 13.103 4.01989 13.4524 4.83381C13.8018 5.64773 13.9787 6.52131 13.983 7.45455C13.9872 8.38778 13.8146 9.26136 13.4652 10.0753C13.1158 10.8892 12.6321 11.6072 12.0142 12.2294C11.3963 12.8473 10.6783 13.331 9.86009 13.6804C9.0419 14.0298 8.16619 14.2045 7.23295 14.2045ZM7.23295 12.7216C7.96165 12.7216 8.6456 12.5852 9.2848 12.3125C9.92401 12.0398 10.4844 11.6626 10.9659 11.1811C11.4474 10.6996 11.8246 10.1413 12.0973 9.50639C12.37 8.86719 12.5043 8.18537 12.5 7.46094C12.4957 6.73224 12.3572 6.0483 12.0845 5.40909C11.8118 4.76989 11.4347 4.20952 10.9531 3.72798C10.4716 3.24645 9.91335 2.86932 9.27841 2.59659C8.64347 2.32386 7.96165 2.1875 7.23295 2.1875C6.50852 2.1875 5.82884 2.32386 5.19389 2.59659C4.55895 2.86932 4.00071 3.24858 3.51918 3.73438C3.03764 4.21591 2.65838 4.77628 2.38139 5.41548C2.10866 6.05043 1.97017 6.73224 1.96591 7.46094C1.96165 8.18111 2.09588 8.8608 2.36861 9.5C2.64134 10.1349 3.01847 10.6932 3.5 11.1747C3.9858 11.6562 4.54617 12.0355 5.18111 12.3125C5.82031 12.5852 6.50426 12.7216 7.23295 12.7216ZM21.8883 14V12.8494L26.2093 8.11932C26.7164 7.56534 27.1341 7.08381 27.4622 6.67472C27.7903 6.26136 28.0332 5.87358 28.1909 5.51136C28.3528 5.14489 28.4338 4.76136 28.4338 4.3608C28.4338 3.90057 28.323 3.50213 28.1014 3.16548C27.8841 2.82883 27.5858 2.56889 27.2065 2.38565C26.8272 2.20241 26.4011 2.1108 25.9281 2.1108C25.4252 2.1108 24.9863 2.2152 24.6113 2.42401C24.2406 2.62855 23.9529 2.91619 23.7484 3.28693C23.5481 3.65767 23.448 4.09233 23.448 4.59091H21.9395C21.9395 3.82386 22.1163 3.15057 22.47 2.57102C22.8237 1.99148 23.3052 1.53977 23.9146 1.21591C24.5282 0.892045 25.2164 0.730113 25.9792 0.730113C26.7463 0.730113 27.426 0.892045 28.0183 1.21591C28.6106 1.53977 29.0751 1.97656 29.4118 2.52628C29.7484 3.07599 29.9167 3.6875 29.9167 4.3608C29.9167 4.84233 29.8294 5.31321 29.6547 5.77344C29.4842 6.2294 29.1859 6.73864 28.7598 7.30114C28.3379 7.85937 27.752 8.54119 27.002 9.34659L24.0616 12.4915V12.5938H30.1468V14H21.8883ZM37.0566 14.179C36.0936 14.179 35.2733 13.9169 34.5957 13.3928C33.9181 12.8643 33.4004 12.0994 33.0424 11.098C32.6845 10.0923 32.5055 8.87784 32.5055 7.45455C32.5055 6.03977 32.6845 4.83168 33.0424 3.83026C33.4047 2.82457 33.9245 2.05753 34.6021 1.52912C35.2839 0.996448 36.1021 0.730113 37.0566 0.730113C38.0112 0.730113 38.8272 0.996448 39.5048 1.52912C40.1866 2.05753 40.7065 2.82457 41.0645 3.83026C41.4267 4.83168 41.6078 6.03977 41.6078 7.45455C41.6078 8.87784 41.4288 10.0923 41.0708 11.098C40.7129 12.0994 40.1951 12.8643 39.5176 13.3928C38.84 13.9169 38.0197 14.179 37.0566 14.179ZM37.0566 12.7727C38.0112 12.7727 38.7527 12.3125 39.2811 11.392C39.8095 10.4716 40.0737 9.15909 40.0737 7.45455C40.0737 6.32102 39.9522 5.35582 39.7093 4.55895C39.4707 3.76207 39.1255 3.15483 38.6738 2.73722C38.2264 2.3196 37.6873 2.1108 37.0566 2.1108C36.1106 2.1108 35.3713 2.57741 34.8386 3.51065C34.3059 4.43963 34.0396 5.75426 34.0396 7.45455C34.0396 8.58807 34.1589 9.55114 34.3975 10.3438C34.6362 11.1364 34.9792 11.7393 35.4267 12.1527C35.8784 12.5661 36.4217 12.7727 37.0566 12.7727ZM44.0368 14V12.8494L48.3578 8.11932C48.8649 7.56534 49.2825 7.08381 49.6106 6.67472C49.9387 6.26136 50.1816 5.87358 50.3393 5.51136C50.5012 5.14489 50.5822 4.76136 50.5822 4.3608C50.5822 3.90057 50.4714 3.50213 50.2498 3.16548C50.0325 2.82883 49.7342 2.56889 49.3549 2.38565C48.9757 2.20241 48.5495 2.1108 48.0765 2.1108C47.5737 2.1108 47.1348 2.2152 46.7598 2.42401C46.389 2.62855 46.1014 2.91619 45.8968 3.28693C45.6966 3.65767 45.5964 4.09233 45.5964 4.59091H44.0879C44.0879 3.82386 44.2647 3.15057 44.6184 2.57102C44.9721 1.99148 45.4537 1.53977 46.063 1.21591C46.6767 0.892045 47.3649 0.730113 48.1277 0.730113C48.8947 0.730113 49.5744 0.892045 50.1667 1.21591C50.7591 1.53977 51.2235 1.97656 51.5602 2.52628C51.8968 3.07599 52.0652 3.6875 52.0652 4.3608C52.0652 4.84233 51.9778 5.31321 51.8031 5.77344C51.6326 6.2294 51.3343 6.73864 50.9082 7.30114C50.4863 7.85937 49.9004 8.54119 49.1504 9.34659L46.21 12.4915V12.5938H52.2953V14H44.0368ZM59.2051 14.179C58.242 14.179 57.4217 13.9169 56.7441 13.3928C56.0666 12.8643 55.5488 12.0994 55.1909 11.098C54.8329 10.0923 54.6539 8.87784 54.6539 7.45455C54.6539 6.03977 54.8329 4.83168 55.1909 3.83026C55.5531 2.82457 56.073 2.05753 56.7505 1.52912C57.4324 0.996448 58.2505 0.730113 59.2051 0.730113C60.1596 0.730113 60.9757 0.996448 61.6532 1.52912C62.3351 2.05753 62.8549 2.82457 63.2129 3.83026C63.5751 4.83168 63.7562 6.03977 63.7562 7.45455C63.7562 8.87784 63.5772 10.0923 63.2193 11.098C62.8613 12.0994 62.3436 12.8643 61.666 13.3928C60.9885 13.9169 60.1681 14.179 59.2051 14.179ZM59.2051 12.7727C60.1596 12.7727 60.9011 12.3125 61.4295 11.392C61.9579 10.4716 62.2221 9.15909 62.2221 7.45455C62.2221 6.32102 62.1007 5.35582 61.8578 4.55895C61.6191 3.76207 61.274 3.15483 60.8223 2.73722C60.3748 2.3196 59.8358 2.1108 59.2051 2.1108C58.2591 2.1108 57.5197 2.57741 56.987 3.51065C56.4544 4.43963 56.188 5.75426 56.188 7.45455C56.188 8.58807 56.3074 9.55114 56.546 10.3438C56.7846 11.1364 57.1277 11.7393 57.5751 12.1527C58.0268 12.5661 58.5701 12.7727 59.2051 12.7727ZM71.4778 0.909091H73.3699L77.8187 11.7756H77.9721L82.421 0.909091H84.313V14H82.8301V4.05398H82.7022L78.6113 14H77.1795L73.0886 4.05398H72.9608V14H71.4778V0.909091ZM91.4034 14.2045C90.4574 14.2045 89.6413 13.9957 88.9553 13.5781C88.2734 13.1562 87.7472 12.5682 87.3764 11.8139C87.0099 11.0554 86.8267 10.1733 86.8267 9.16761C86.8267 8.16193 87.0099 7.27557 87.3764 6.50852C87.7472 5.73722 88.2628 5.13636 88.9233 4.70597C89.5881 4.27131 90.3636 4.05398 91.25 4.05398C91.7614 4.05398 92.2663 4.1392 92.7649 4.30966C93.2635 4.48011 93.7173 4.7571 94.1264 5.14062C94.5355 5.51989 94.8615 6.02273 95.1044 6.64915C95.3473 7.27557 95.4688 8.04687 95.4688 8.96307V9.60227H87.9006V8.2983H93.9347C93.9347 7.74432 93.8239 7.25 93.6023 6.81534C93.3849 6.38068 93.0739 6.03764 92.669 5.78622C92.2685 5.5348 91.7955 5.40909 91.25 5.40909C90.6491 5.40909 90.1293 5.55824 89.6903 5.85653C89.2557 6.15057 88.9212 6.53409 88.6868 7.0071C88.4524 7.48011 88.3352 7.98722 88.3352 8.52841V9.39773C88.3352 10.1392 88.4631 10.7678 88.7188 11.2834C88.9787 11.7947 89.3388 12.1847 89.799 12.4531C90.2592 12.7173 90.794 12.8494 91.4034 12.8494C91.7997 12.8494 92.1577 12.794 92.4773 12.6832C92.8011 12.5682 93.0803 12.3977 93.3146 12.1719C93.549 11.9418 93.7301 11.6562 93.858 11.3153L95.3153 11.7244C95.1619 12.2188 94.9041 12.6534 94.5419 13.0284C94.1797 13.3991 93.7322 13.6889 93.1996 13.8977C92.6669 14.1023 92.0682 14.2045 91.4034 14.2045ZM104.718 6.38068L103.363 6.7642C103.278 6.53835 103.152 6.31889 102.986 6.10582C102.824 5.88849 102.602 5.70952 102.321 5.56889C102.04 5.42827 101.68 5.35795 101.241 5.35795C100.64 5.35795 100.139 5.49645 99.7386 5.77344C99.3423 6.04616 99.1442 6.39347 99.1442 6.81534C99.1442 7.19034 99.2805 7.48651 99.5533 7.70384C99.826 7.92116 100.252 8.10227 100.832 8.24716L102.289 8.60511C103.167 8.81818 103.821 9.14418 104.251 9.5831C104.682 10.0178 104.897 10.5781 104.897 11.2642C104.897 11.8267 104.735 12.3295 104.411 12.7727C104.092 13.2159 103.644 13.5653 103.069 13.821C102.494 14.0767 101.825 14.2045 101.062 14.2045C100.06 14.2045 99.2315 13.9872 98.5753 13.5526C97.919 13.1179 97.5036 12.483 97.3288 11.6477L98.7607 11.2898C98.897 11.8182 99.1548 12.2145 99.5341 12.4787C99.9176 12.7429 100.418 12.875 101.036 12.875C101.739 12.875 102.298 12.7259 102.711 12.4276C103.129 12.125 103.337 11.7628 103.337 11.3409C103.337 11 103.218 10.7145 102.979 10.4844C102.741 10.25 102.374 10.0753 101.88 9.96023L100.244 9.5767C99.3445 9.36364 98.6839 9.03338 98.2621 8.58594C97.8445 8.13423 97.6357 7.5696 97.6357 6.89205C97.6357 6.33807 97.7912 5.84801 98.1023 5.42188C98.4176 4.99574 98.8459 4.66122 99.3871 4.41832C99.9325 4.17543 100.55 4.05398 101.241 4.05398C102.212 4.05398 102.975 4.26705 103.529 4.69318C104.087 5.11932 104.484 5.68182 104.718 6.38068ZM111.438 4.18182V5.46023H106.35V4.18182H111.438ZM107.833 1.82955H109.341V11.1875C109.341 11.6136 109.403 11.9332 109.526 12.1463C109.654 12.3551 109.816 12.4957 110.012 12.5682C110.213 12.6364 110.423 12.6705 110.645 12.6705C110.811 12.6705 110.948 12.6619 111.054 12.6449C111.161 12.6236 111.246 12.6065 111.31 12.5938L111.617 13.9489C111.514 13.9872 111.372 14.0256 111.188 14.0639C111.005 14.1065 110.773 14.1278 110.492 14.1278C110.066 14.1278 109.648 14.0362 109.239 13.853C108.834 13.6697 108.497 13.3906 108.229 13.0156C107.965 12.6406 107.833 12.1676 107.833 11.5966V1.82955ZM117.59 14.2045C116.704 14.2045 115.926 13.9936 115.257 13.5717C114.592 13.1499 114.072 12.5597 113.697 11.8011C113.327 11.0426 113.141 10.1562 113.141 9.14205C113.141 8.11932 113.327 7.22656 113.697 6.46378C114.072 5.70099 114.592 5.10866 115.257 4.68679C115.926 4.26491 116.704 4.05398 117.59 4.05398C118.476 4.05398 119.252 4.26491 119.917 4.68679C120.586 5.10866 121.106 5.70099 121.476 6.46378C121.851 7.22656 122.039 8.11932 122.039 9.14205C122.039 10.1562 121.851 11.0426 121.476 11.8011C121.106 12.5597 120.586 13.1499 119.917 13.5717C119.252 13.9936 118.476 14.2045 117.59 14.2045ZM117.59 12.8494C118.263 12.8494 118.817 12.6768 119.252 12.3317C119.687 11.9865 120.008 11.5327 120.217 10.9702C120.426 10.4077 120.53 9.7983 120.53 9.14205C120.53 8.4858 120.426 7.87429 120.217 7.30753C120.008 6.74077 119.687 6.28267 119.252 5.93324C118.817 5.58381 118.263 5.40909 117.59 5.40909C116.917 5.40909 116.363 5.58381 115.928 5.93324C115.493 6.28267 115.172 6.74077 114.963 7.30753C114.754 7.87429 114.65 8.4858 114.65 9.14205C114.65 9.7983 114.754 10.4077 114.963 10.9702C115.172 11.5327 115.493 11.9865 115.928 12.3317C116.363 12.6768 116.917 12.8494 117.59 12.8494ZM129.609 14V0.909091H134.032C135.055 0.909091 135.894 1.08381 136.55 1.43324C137.207 1.77841 137.692 2.25355 138.008 2.85866C138.323 3.46378 138.481 4.15199 138.481 4.9233C138.481 5.6946 138.323 6.37855 138.008 6.97514C137.692 7.57173 137.209 8.04048 136.557 8.38139C135.905 8.71804 135.072 8.88636 134.058 8.88636H130.478V7.45455H134.006C134.705 7.45455 135.268 7.35227 135.694 7.14773C136.124 6.94318 136.435 6.65341 136.627 6.27841C136.823 5.89915 136.921 5.44744 136.921 4.9233C136.921 4.39915 136.823 3.94105 136.627 3.54901C136.431 3.15696 136.118 2.8544 135.688 2.64134C135.257 2.42401 134.688 2.31534 133.981 2.31534H131.194V14H129.609ZM135.771 8.11932L138.992 14H137.151L133.981 8.11932H135.771ZM147.105 9.9858V4.18182H148.614V14H147.105V12.3381H147.003C146.773 12.8366 146.415 13.2607 145.929 13.6101C145.443 13.9553 144.83 14.1278 144.088 14.1278C143.475 14.1278 142.929 13.9936 142.452 13.7251C141.975 13.4524 141.6 13.0433 141.327 12.4979C141.054 11.9482 140.918 11.2557 140.918 10.4205V4.18182H142.426V10.3182C142.426 11.0341 142.627 11.6051 143.027 12.0312C143.432 12.4574 143.948 12.6705 144.574 12.6705C144.949 12.6705 145.33 12.5746 145.718 12.3828C146.11 12.1911 146.438 11.897 146.703 11.5007C146.971 11.1044 147.105 10.5994 147.105 9.9858ZM158.331 6.38068L156.976 6.7642C156.891 6.53835 156.765 6.31889 156.599 6.10582C156.437 5.88849 156.216 5.70952 155.934 5.56889C155.653 5.42827 155.293 5.35795 154.854 5.35795C154.253 5.35795 153.752 5.49645 153.352 5.77344C152.956 6.04616 152.757 6.39347 152.757 6.81534C152.757 7.19034 152.894 7.48651 153.167 7.70384C153.439 7.92116 153.865 8.10227 154.445 8.24716L155.902 8.60511C156.78 8.81818 157.434 9.14418 157.865 9.5831C158.295 10.0178 158.51 10.5781 158.51 11.2642C158.51 11.8267 158.348 12.3295 158.025 12.7727C157.705 13.2159 157.257 13.5653 156.682 13.821C156.107 14.0767 155.438 14.2045 154.675 14.2045C153.674 14.2045 152.845 13.9872 152.189 13.5526C151.532 13.1179 151.117 12.483 150.942 11.6477L152.374 11.2898C152.51 11.8182 152.768 12.2145 153.147 12.4787C153.531 12.7429 154.032 12.875 154.65 12.875C155.353 12.875 155.911 12.7259 156.324 12.4276C156.742 12.125 156.951 11.7628 156.951 11.3409C156.951 11 156.831 10.7145 156.593 10.4844C156.354 10.25 155.988 10.0753 155.493 9.96023L153.857 9.5767C152.958 9.36364 152.297 9.03338 151.875 8.58594C151.458 8.13423 151.249 7.5696 151.249 6.89205C151.249 6.33807 151.404 5.84801 151.716 5.42188C152.031 4.99574 152.459 4.66122 153 4.41832C153.546 4.17543 154.164 4.05398 154.854 4.05398C155.826 4.05398 156.588 4.26705 157.142 4.69318C157.701 5.11932 158.097 5.68182 158.331 6.38068ZM167.736 6.38068L166.381 6.7642C166.295 6.53835 166.17 6.31889 166.003 6.10582C165.841 5.88849 165.62 5.70952 165.339 5.56889C165.057 5.42827 164.697 5.35795 164.258 5.35795C163.657 5.35795 163.157 5.49645 162.756 5.77344C162.36 6.04616 162.162 6.39347 162.162 6.81534C162.162 7.19034 162.298 7.48651 162.571 7.70384C162.844 7.92116 163.27 8.10227 163.849 8.24716L165.307 8.60511C166.184 8.81818 166.839 9.14418 167.269 9.5831C167.699 10.0178 167.915 10.5781 167.915 11.2642C167.915 11.8267 167.753 12.3295 167.429 12.7727C167.109 13.2159 166.662 13.5653 166.086 13.821C165.511 14.0767 164.842 14.2045 164.079 14.2045C163.078 14.2045 162.249 13.9872 161.593 13.5526C160.937 13.1179 160.521 12.483 160.346 11.6477L161.778 11.2898C161.915 11.8182 162.172 12.2145 162.552 12.4787C162.935 12.7429 163.436 12.875 164.054 12.875C164.757 12.875 165.315 12.7259 165.729 12.4276C166.146 12.125 166.355 11.7628 166.355 11.3409C166.355 11 166.236 10.7145 165.997 10.4844C165.758 10.25 165.392 10.0753 164.898 9.96023L163.261 9.5767C162.362 9.36364 161.702 9.03338 161.28 8.58594C160.862 8.13423 160.653 7.5696 160.653 6.89205C160.653 6.33807 160.809 5.84801 161.12 5.42188C161.435 4.99574 161.863 4.66122 162.405 4.41832C162.95 4.17543 163.568 4.05398 164.258 4.05398C165.23 4.05398 165.993 4.26705 166.547 4.69318C167.105 5.11932 167.501 5.68182 167.736 6.38068ZM170.185 14V4.18182H171.694V14H170.185ZM170.952 2.54545C170.658 2.54545 170.405 2.44531 170.192 2.24503C169.983 2.04474 169.879 1.80398 169.879 1.52273C169.879 1.24148 169.983 1.00071 170.192 0.800426C170.405 0.600142 170.658 0.5 170.952 0.5C171.246 0.5 171.498 0.600142 171.707 0.800426C171.92 1.00071 172.026 1.24148 172.026 1.52273C172.026 1.80398 171.92 2.04474 171.707 2.24503C171.498 2.44531 171.246 2.54545 170.952 2.54545ZM177.346 14.2301C176.724 14.2301 176.159 14.1129 175.652 13.8786C175.145 13.6399 174.742 13.2969 174.444 12.8494C174.146 12.3977 173.997 11.8523 173.997 11.2131C173.997 10.6506 174.107 10.1946 174.329 9.84517C174.551 9.49148 174.847 9.21449 175.218 9.0142C175.588 8.81392 175.997 8.66477 176.445 8.56676C176.896 8.46449 177.35 8.38352 177.806 8.32386C178.403 8.24716 178.887 8.18963 179.257 8.15128C179.632 8.10866 179.905 8.03835 180.075 7.94034C180.25 7.84233 180.338 7.67187 180.338 7.42898V7.37784C180.338 6.74716 180.165 6.2571 179.82 5.90767C179.479 5.55824 178.961 5.38352 178.267 5.38352C177.546 5.38352 176.982 5.54119 176.573 5.85653C176.164 6.17187 175.876 6.50852 175.71 6.86648L174.278 6.35511C174.534 5.75852 174.874 5.29403 175.301 4.96165C175.731 4.625 176.2 4.39062 176.707 4.25852C177.218 4.12216 177.721 4.05398 178.215 4.05398C178.531 4.05398 178.893 4.09233 179.302 4.16903C179.715 4.24148 180.114 4.39276 180.497 4.62287C180.885 4.85298 181.207 5.20028 181.463 5.66477C181.718 6.12926 181.846 6.75142 181.846 7.53125V14H180.338V12.6705H180.261C180.159 12.8835 179.988 13.1115 179.749 13.3544C179.511 13.5973 179.193 13.804 178.797 13.9744C178.401 14.1449 177.917 14.2301 177.346 14.2301ZM177.576 12.875C178.173 12.875 178.676 12.7578 179.085 12.5234C179.498 12.2891 179.809 11.9865 180.018 11.6158C180.231 11.245 180.338 10.8551 180.338 10.446V9.06534C180.274 9.14205 180.133 9.21236 179.916 9.27628C179.703 9.33594 179.455 9.3892 179.174 9.43608C178.897 9.47869 178.627 9.51705 178.362 9.55114C178.102 9.58097 177.892 9.60653 177.73 9.62784C177.338 9.67898 176.971 9.76207 176.63 9.87713C176.294 9.98793 176.021 10.1562 175.812 10.3821C175.607 10.6037 175.505 10.9062 175.505 11.2898C175.505 11.8139 175.699 12.2102 176.087 12.4787C176.479 12.7429 176.975 12.875 177.576 12.875Z" fill="#545454"/>
</svg>
